<svg width="272" height="71" viewBox="0 0 272 71" fill="none" xmlns="http://www.w3.org/2000/svg">
<path d="M211.699 11.4752C216.681 2.86138 220.002 2 220.832 2C221.663 2 241.59 2.00007 241.59 2.00007L268.989 2.00011C268.989 2.00011 261.465 2.55636 256.536 2.86139C251.606 3.16641 247.458 6.72692 244.911 10.6139C239.91 17.6375 238.269 20.0892 234.948 20.0892C231.627 20.0892 227.135 20.0839 223.322 20.0892C221.507 20.0917 224.984 20.0891 216.682 20.0891C208.379 20.0891 208.415 17.1532 211.699 11.4752ZM236.608 61.4356V20.0892C239.239 17.8587 238.496 19.3123 240.76 17.5049C243.596 15.2412 247.67 8.0985 249.893 6.30693C251.803 4.7676 255.708 3.15516 257.366 2.00009C262.229 2.00009 264.956 2.00009 269.819 2.00009C269.998 7.53191 266.499 14.0594 261.517 14.0594H249.893V47.6535C249.963 53.9448 245.742 57.9901 245.742 57.9901C245.742 57.9901 243.251 61.4356 236.608 61.4356Z" stroke="#2F80ED" stroke-width="4"/>
<path d="M244.082 57.9902L239.1 60.5744V21.812L250.724 8.89122L257.367 4.58429L267.33 3.7229C267.33 3.7229 268.161 4.58429 266.5 5.44567C264.839 6.30706 265.922 8.45324 263.179 10.614L248.233 13.1981L247.403 26.1189V50.2377L244.082 57.9902Z" fill="#2F80ED" stroke="#2F80ED" stroke-width="3"/>
<path fill-rule="evenodd" clip-rule="evenodd" d="M167.13 9.75975C167.13 9.75954 167.13 9.75942 168.679 9.75941L167.13 9.7594V9.70923L167.132 9.65912C167.246 7.39924 167.69 5.53479 168.546 4.05146C169.43 2.5214 170.674 1.53351 172.117 0.930101C173.505 0.34975 175.039 0.140139 176.532 0.0560497C177.68 -0.00862074 178.928 -0.00249529 180.16 0.0035547L180.16 0.00355491C180.519 0.00531603 180.876 0.00707078 181.229 0.00707078V1.14572C181.23 1.14572 181.23 1.14572 181.23 1.14572L181.23 10.621L181.23 17.729C182.894 18.4316 184.69 19.2827 186.212 20.3962C188.872 22.3427 190.913 25.2233 190.706 29.6192C190.707 29.9071 190.707 30.1214 190.707 30.2843C190.707 30.6648 190.707 30.7643 190.707 30.8638C190.707 30.8992 190.707 30.9345 190.707 30.9824C190.707 31.41 190.705 32.8394 190.706 44.2146C190.707 48.6717 190.677 52.355 190.473 55.2548C190.274 58.0826 189.896 60.4795 189.014 62.1674C188.548 63.0601 187.892 63.8536 186.962 64.372C186.027 64.8932 185.004 65.0311 183.992 64.9387C182.092 64.7653 179.894 63.7421 177.442 62.3074C172.645 59.5013 169.827 57.5416 168.409 55.1528C167.096 52.9405 167.11 50.5198 167.126 47.7422C167.128 47.4323 167.13 47.118 167.13 46.799L167.13 25.695L167.13 14.5778L167.13 11.0683L167.13 10.0997L167.13 9.8461L167.13 9.78128V9.7649V9.76078V9.75975ZM171.13 25.695L171.13 16.3964C172.642 17.8752 174.555 19.2954 176.744 20.2167C177.259 20.4333 177.772 20.6412 178.281 20.8471L178.281 20.8471L178.281 20.8471C180.307 21.667 182.25 22.4537 183.85 23.6242C185.678 24.9622 186.852 26.6664 186.709 29.4692L186.706 29.5212L186.706 29.5733C186.707 29.8932 186.707 30.1259 186.707 30.299C186.707 30.6705 186.707 30.7679 186.707 30.8653C186.707 30.8999 186.707 30.9345 186.707 30.9815C186.707 31.404 186.705 32.8239 186.706 44.2151C186.707 48.693 186.676 52.2371 186.483 54.974C186.285 57.7828 185.93 59.4318 185.469 60.3157C185.263 60.7091 185.095 60.833 185.014 60.8781C184.938 60.9206 184.763 60.9924 184.356 60.9553C183.417 60.8696 181.892 60.2767 179.462 58.8549C174.494 55.9483 172.651 54.4624 171.849 53.1112C171.127 51.8947 171.127 50.6449 171.129 47.3429L171.13 46.799L171.13 25.695Z" fill="#2F80ED"/>
<path d="M114.987 39.0394C114.987 53.787 103.463 65.7424 89.2475 65.7424C75.0321 65.7424 63.5083 53.787 63.5083 39.0394C63.5083 24.2917 75.0321 12.3364 89.2475 12.3364C103.463 12.3364 114.987 24.2917 114.987 39.0394ZM73.2241 39.0394C73.2241 48.2202 80.398 55.6628 89.2475 55.6628C98.097 55.6628 105.271 48.2202 105.271 39.0394C105.271 29.8586 98.097 22.416 89.2475 22.416C80.398 22.416 73.2241 29.8586 73.2241 39.0394Z" fill="black"/>
<path d="M82.1068 30.5518C82.1068 30.5518 82.1573 16.1137 82.1068 15.3741C82.0562 14.6345 85.2826 19.9273 85.2826 19.9273C87.8655 22.8545 88.3439 22.9902 91.6343 25.2391C97.0102 27.9796 96.3511 32.4326 96.3893 37.3107C96.3538 45.9655 96.745 47.3382 88.4586 41.1761C83.568 37.3157 81.96 35.0191 82.1068 30.5518Z" fill="white" stroke="black" stroke-width="2.5"/>
<path fill-rule="evenodd" clip-rule="evenodd" d="M18.7644 2.73601L18.7631 2.73597L18.7568 2.73577L18.7322 2.73499L18.6364 2.73209C18.5522 2.7296 18.4277 2.72606 18.2655 2.72184C17.9411 2.7134 17.466 2.70222 16.8613 2.69121C15.6521 2.66918 13.9244 2.64781 11.8474 2.65035C9.06054 2.65376 5.01304 2.92108 2.7112 5.98723C1.6266 7.43197 1.00004 9.40848 1.00004 12.0559L1.00004 36.0543L1.00004 48.6892L1.00004 52.6773L1.00004 53.7781V54.0662V54.1399V54.1585V54.1631V54.1643C1.00004 54.1646 1.00004 54.1647 1.90004 54.1647H1L1.00008 54.1734C1.03461 57.7662 2.13662 60.3606 3.82842 62.412C5.48943 64.426 7.69395 65.8806 9.83014 67.2461C11.6539 68.4326 12.7352 69.1131 13.574 69.4805C14.4988 69.8857 15.1455 69.9177 16.0174 69.9155C16.0653 69.9154 16.1166 69.9156 16.1706 69.9159C16.5052 69.9178 16.9446 69.9202 17.3394 69.8302C17.8786 69.7072 18.381 69.4133 18.7482 68.8259C19.0814 68.2931 19.2667 67.5755 19.3636 66.6662C19.4414 65.936 19.4672 65.0261 19.4389 63.8932C19.7864 63.8935 20.2203 63.89 20.7268 63.8778C22.1334 63.844 24.1029 63.7427 26.3409 63.4648C30.7909 62.9121 36.4123 61.6486 40.7602 58.7378C44.2198 56.4217 46.3692 52.9001 47.7109 48.7053C49.0496 44.5201 49.6048 39.6029 49.8385 34.4018C50.3762 22.432 47.8174 14.5822 42.3498 9.68279C36.9218 4.81891 28.8268 3.05394 18.7644 2.73601ZM19.4164 62.0932C19.7549 62.0936 20.1821 62.0904 20.6836 62.0784C22.046 62.0456 23.954 61.9474 26.119 61.6785C29.6702 61.2375 33.8399 60.3456 37.4253 58.581L24.5174 60.4018H20.998V56.9879C20.7279 56.9936 20.5109 56.9966 20.3563 56.9982C20.2691 56.9991 20.2016 56.9995 20.1556 56.9998L20.1028 57L20.0888 57L20.085 57H20.0839H20.0836C20.0834 57 20.0833 57 20.0833 56L20.0833 55H20.0838L20.0864 55L20.0979 55L20.1457 54.9998L20.211 54.9994L20.3356 54.9983C20.4916 54.9967 20.7159 54.9936 20.998 54.9875V53.8193C20.998 53.8193 26.1618 54.518 30.5297 54.1666C30.6304 54.1494 30.7309 54.1319 30.8309 54.114C33.2437 53.6825 36.0102 52.7165 38.146 50.598C39.5048 49.2502 40.6549 47.3897 41.2771 44.7947C41.3059 44.0936 41.4703 42.4145 41.7698 39.7122L41.7677 39.5905L41.7894 39.5348C41.8127 39.3252 41.8368 39.1097 41.8617 38.8882C41.8945 38.4736 41.9302 37.9035 41.9571 37.2168C42.0141 35.7628 42.0312 33.8007 41.9005 31.6967C41.7696 29.5884 41.492 27.3645 40.9696 25.3764C40.4427 23.3714 39.6916 21.7034 38.6782 20.6161C36.6332 18.4219 35.5311 17.3139 34.5688 16.6854C33.7524 16.3531 32.8643 16.0552 31.8717 15.7894C31.2458 15.7047 30.4838 15.6348 29.4996 15.5445L29.2349 15.5202C27.9883 15.4056 26.6692 15.3855 25.2326 15.3731L24.8434 15.3698C23.5288 15.3591 22.1246 15.3477 20.647 15.2657C17.3824 15.0844 13.7314 14.558 9.63087 12.9294L10.1156 11.7089C8.57708 11.0975 6.99321 10.0879 6.0265 9.09575C6.30758 9.50256 6.61699 9.93243 6.95117 10.373C8.46244 12.3656 10.3725 14.4315 12.2941 15.5266C16.4772 17.9103 19.6818 20.5398 19.6359 25.0894V43.1739V43.1843H19.6359L19.4164 62.0932ZM5.13994 7.74689C4.86596 7.30697 4.6488 6.93306 4.49665 6.65345C6.26107 4.74935 9.18048 4.45362 11.8496 4.45035C13.9132 4.44783 15.6292 4.46906 16.8285 4.49091C17.4282 4.50183 17.8986 4.51291 18.2186 4.52123C18.3786 4.5254 18.5011 4.52888 18.5832 4.5313L18.676 4.53411L18.6991 4.53484L18.7047 4.53503L18.7061 4.53507L18.7063 4.53508L18.7064 4.53508L18.7075 4.53512C28.6783 4.85015 36.2171 6.60439 41.1485 11.0233C44.9382 14.4192 47.3083 19.5035 47.9391 27.0703C47.0804 22.3168 45.3163 17.6154 45.3163 17.6154C41.4539 12.394 38.7635 10.1965 32.991 7.74157L16.0438 5.27312C16.0438 5.27312 6.59971 5.05539 5.25918 6.91875C5.08772 7.15709 5.05733 7.43901 5.13994 7.74689ZM47.944 36.1345C47.271 40.132 46.0866 43.9455 46.0866 43.9455L42.4149 52.4999L38.2582 58.1492C38.7746 57.8671 39.2761 57.5652 39.7589 57.242C42.7756 55.2224 44.7337 52.1049 45.9965 48.1569C47.1123 44.6686 47.6693 40.5808 47.944 36.1345ZM13.5551 12.1413C13.6019 12.1232 13.6472 12.1034 13.6911 12.0818H19.5032L25.5592 13.376C25.4563 13.375 25.3532 13.374 25.25 13.3731L24.8637 13.3699C23.5433 13.3591 22.1857 13.348 20.7579 13.2687C18.5274 13.1449 16.1402 12.8549 13.5551 12.1413ZM41.5012 21.1793C42.0755 22.2372 42.5132 23.431 42.8495 24.6649L42.9546 22.391C42.7599 22.2288 42.5689 22.0693 42.3813 21.9126C42.0803 21.6612 41.7877 21.4168 41.5012 21.1793ZM42.4149 47.742C41.9317 48.8892 41.3365 49.894 40.6565 50.7721C41.7232 50.228 42.4149 49.8363 42.4149 49.8363V47.742ZM3.41678 8.3806C3.03458 9.32258 2.80004 10.5215 2.80004 12.0559L2.80004 36.0543L2.80004 48.6892L2.80004 52.6773L2.80004 53.7781V54.0662V54.1399V54.1585V54.1603C2.83146 57.3429 3.7906 59.5371 5.21707 61.2667C6.67414 63.0334 8.64468 64.352 10.8028 65.7315L10.8089 65.7354C12.68 66.9528 13.6229 67.5368 14.2962 67.8318C14.884 68.0892 15.2375 68.1175 16.0128 68.1155C16.0817 68.1153 16.1456 68.1153 16.2052 68.1154H16.2101C16.5618 68.1155 16.7623 68.1156 16.9392 68.0753C17.0659 68.0463 17.1368 68.008 17.222 67.8717C17.3413 67.6809 17.4876 67.2835 17.5737 66.4755C17.6582 65.6818 17.6772 64.5732 17.6069 63.0267L17.6625 63.0241C17.665 63.0081 17.6678 62.9921 17.6708 62.9761L17.6061 62.9753L17.8359 43.1687V25.0848V25.0753H17.836C17.8726 21.619 15.5545 19.4562 11.4029 17.0905C9.15654 15.8104 7.0676 13.5052 5.51701 11.4608C4.66136 10.3326 3.93668 9.2392 3.41678 8.3806Z" fill="black"/>
<path d="M18.7631 2.73597L18.7928 1.83646L18.7921 1.83644L18.7631 2.73597ZM18.7644 2.73601L18.7347 3.63553L18.7359 3.63557L18.7644 2.73601ZM18.7568 2.73577L18.7858 1.83624L18.7852 1.83622L18.7568 2.73577ZM18.7322 2.73499L18.7606 1.83544L18.7594 1.8354L18.7322 2.73499ZM18.6364 2.73209L18.6637 1.8325L18.663 1.83248L18.6364 2.73209ZM18.2655 2.72184L18.242 3.62154L18.2655 2.72184ZM16.8613 2.69121L16.8777 1.79136L16.8613 2.69121ZM11.8474 2.65035L11.8485 3.55035L11.8474 2.65035ZM2.7112 5.98723L3.43095 6.52757L2.7112 5.98723ZM1.00004 12.0559H1.90004H1.00004ZM1.00004 36.0543H1.90004H1.00004ZM1.00004 48.6892H1.90004H1.00004ZM1.00004 52.6773H1.90004H1.00004ZM1.00004 53.7781H0.100042H1.00004ZM1 54.1647V53.2647H0.0913113L0.100042 54.1734L1 54.1647ZM1.00008 54.1734L0.100125 54.182L1.00008 54.1734ZM3.82842 62.412L3.13409 62.9846H3.13409L3.82842 62.412ZM9.83014 67.2461L10.321 66.4917L10.3149 66.4878L9.83014 67.2461ZM13.574 69.4805L13.2128 70.3049L13.2128 70.3049L13.574 69.4805ZM16.0174 69.9155L16.0151 69.0155H16.0151L16.0174 69.9155ZM16.1706 69.9159L16.1756 69.0159H16.1756L16.1706 69.9159ZM17.3394 69.8302L17.1393 68.9527L17.1393 68.9527L17.3394 69.8302ZM18.7482 68.8259L17.9851 68.3488L18.7482 68.8259ZM19.3636 66.6662L18.4686 66.5708L19.3636 66.6662ZM19.4389 63.8932L19.4396 62.9932L18.5162 62.9926L18.5392 63.9156L19.4389 63.8932ZM20.7268 63.8778L20.7052 62.9781L20.7268 63.8778ZM26.3409 63.4648L26.2299 62.5716L26.3409 63.4648ZM40.7602 58.7378L41.2609 59.4857L40.7602 58.7378ZM47.7109 48.7053L48.5682 48.9795V48.9795L47.7109 48.7053ZM49.8385 34.4018L50.7376 34.4422L49.8385 34.4018ZM42.3498 9.68279L41.7491 10.3531L42.3498 9.68279ZM20.6836 62.0784L20.7052 62.9781H20.7052L20.6836 62.0784ZM19.4164 62.0932L18.5165 62.0828L18.5059 62.9921L19.4153 62.9932L19.4164 62.0932ZM26.119 61.6785L26.0081 60.7854H26.0081L26.119 61.6785ZM37.4253 58.581L37.8228 59.3885L37.2996 57.6898L37.4253 58.581ZM24.5174 60.4018V61.3018H24.5806L24.6431 61.293L24.5174 60.4018ZM20.998 60.4018H20.098V61.3018H20.998V60.4018ZM20.998 56.9879H21.898V56.0689L20.9792 56.0881L20.998 56.9879ZM20.3563 56.9982L20.347 56.0982H20.347L20.3563 56.9982ZM20.1556 56.9998L20.159 57.8998L20.1601 57.8998L20.1556 56.9998ZM20.1028 57L20.1045 57.9L20.1063 57.9L20.1028 57ZM20.0888 57L20.0897 57.9L20.0906 57.9L20.0888 57ZM20.085 57V57.9L20.0859 57.9L20.085 57ZM20.0833 56H20.9833V56L20.0833 56ZM20.0833 55V54.1H19.1833L19.1833 55L20.0833 55ZM20.0838 55V55.9L20.0851 55.9L20.0838 55ZM20.0864 55L20.0877 55.9H20.0879L20.0864 55ZM20.0979 55L20.0994 55.9L20.1014 55.9L20.0979 55ZM20.1457 54.9998L20.1491 55.8998L20.1512 55.8998L20.1457 54.9998ZM20.211 54.9994L20.2165 55.8994L20.2189 55.8994L20.211 54.9994ZM20.3356 54.9983L20.3436 55.8983L20.3449 55.8982L20.3356 54.9983ZM20.998 54.9875L21.0173 55.8873L21.898 55.8684V54.9875H20.998ZM20.998 53.8193L21.1187 52.9274L20.098 52.7893V53.8193H20.998ZM30.5297 54.1666L30.6019 55.0637L30.6417 55.0605L30.681 55.0538L30.5297 54.1666ZM30.8309 54.114L30.9894 54.9999H30.9894L30.8309 54.114ZM38.146 50.598L38.7797 51.237H38.7798L38.146 50.598ZM41.2771 44.7947L42.1523 45.0045L42.1727 44.9192L42.1763 44.8316L41.2771 44.7947ZM41.7698 39.7122L42.6643 39.8113L42.6706 39.7544L42.6696 39.6971L41.7698 39.7122ZM41.7677 39.5905L40.9292 39.2637L40.8649 39.4286L40.8679 39.6056L41.7677 39.5905ZM41.7894 39.5348L42.628 39.8617L42.6709 39.7516L42.6839 39.6342L41.7894 39.5348ZM41.8617 38.8882L42.7561 38.9885L42.7577 38.9738L42.7589 38.9591L41.8617 38.8882ZM41.9571 37.2168L42.8564 37.252L41.9571 37.2168ZM41.9005 31.6967L42.7988 31.6409V31.6409L41.9005 31.6967ZM40.9696 25.3764L40.0991 25.6052L40.0991 25.6052L40.9696 25.3764ZM38.6782 20.6161L39.3366 20.0025L38.6782 20.6161ZM34.5688 16.6854L35.061 15.9319L34.9884 15.8845L34.9081 15.8518L34.5688 16.6854ZM31.8717 15.7894L32.1044 14.92L32.0491 14.9052L31.9924 14.8975L31.8717 15.7894ZM29.4996 15.5445L29.4173 16.4408L29.4174 16.4408L29.4996 15.5445ZM29.2349 15.5202L29.1525 16.4164L29.1526 16.4165L29.2349 15.5202ZM25.2326 15.3731L25.2404 14.4731L25.2401 14.4731L25.2326 15.3731ZM24.8434 15.3698L24.8509 14.4699L24.8507 14.4699L24.8434 15.3698ZM20.647 15.2657L20.6969 14.367L20.647 15.2657ZM9.63087 12.9294L8.79443 12.5972L8.46222 13.4336L9.29866 13.7658L9.63087 12.9294ZM10.1156 11.7089L10.9521 12.0411L11.2842 11.2048L10.448 10.8725L10.1156 11.7089ZM6.0265 9.09575L6.6711 8.46766L5.28605 9.60734L6.0265 9.09575ZM6.95117 10.373L6.23409 10.9169L6.95117 10.373ZM12.2941 15.5266L12.7397 14.7446L12.2941 15.5266ZM19.6359 25.0894L18.7359 25.0803V25.0894H19.6359ZM19.6359 43.1843V44.0843H20.5359V43.1843H19.6359ZM19.6359 43.1843V42.2843H18.7463L18.7359 43.1739L19.6359 43.1843ZM5.13994 7.74689L4.37598 8.22268L6.00919 7.51366L5.13994 7.74689ZM4.49665 6.65345L3.8365 6.04173L3.39715 6.51586L3.70612 7.08363L4.49665 6.65345ZM11.8496 4.45035L11.8485 3.55035L11.8496 4.45035ZM16.8285 4.49091L16.8449 3.59106L16.8285 4.49091ZM18.2186 4.52123L18.242 3.62154L18.242 3.62154L18.2186 4.52123ZM18.5832 4.5313L18.6105 3.63172L18.6098 3.6317L18.5832 4.5313ZM18.676 4.53411L18.7044 3.63456L18.7032 3.63453L18.676 4.53411ZM18.6991 4.53484L18.7281 3.63531L18.7275 3.63529L18.6991 4.53484ZM18.7047 4.53503L18.7341 3.63551L18.7337 3.63549L18.7047 4.53503ZM18.7061 4.53507L18.6767 5.43459L18.6768 5.43459L18.7061 4.53507ZM18.7063 4.53508L18.7366 3.63559L18.7356 3.63555L18.7063 4.53508ZM18.7064 4.53508L18.6761 5.43457L18.6775 5.43462L18.7064 4.53508ZM18.7075 4.53512L18.6786 5.43465L18.6791 5.43467L18.7075 4.53512ZM41.1485 11.0233L40.5479 11.6936L41.1485 11.0233ZM47.9391 27.0703L47.0534 27.2303L48.836 26.9956L47.9391 27.0703ZM45.3163 17.6154L46.1589 17.2992L46.1147 17.1813L46.0398 17.0801L45.3163 17.6154ZM32.991 7.74157L33.3432 6.91335L33.236 6.86776L33.1207 6.85097L32.991 7.74157ZM16.0438 5.27312L16.1735 4.38252L16.1193 4.37462L16.0645 4.37336L16.0438 5.27312ZM5.25918 6.91875L4.5286 6.39316L4.5286 6.39316L5.25918 6.91875ZM46.0866 43.9455L46.9136 44.3005L46.9322 44.2573L46.9461 44.2124L46.0866 43.9455ZM47.944 36.1345L48.8423 36.19L47.0565 35.9851L47.944 36.1345ZM42.4149 52.4999L43.1398 53.0333L43.2011 52.95L43.2419 52.8549L42.4149 52.4999ZM38.2582 58.1492L37.5333 57.6158L38.6896 58.939L38.2582 58.1492ZM39.7589 57.242L39.2582 56.4942H39.2582L39.7589 57.242ZM45.9965 48.1569L45.1393 47.8827L45.9965 48.1569ZM13.5551 12.1413L13.2303 11.302L10.6917 12.2845L13.3157 13.0089L13.5551 12.1413ZM13.6911 12.0818V11.1818H13.4813L13.2931 11.2745L13.6911 12.0818ZM19.5032 12.0818L19.6913 11.2016L19.5983 11.1818H19.5032V12.0818ZM25.5592 13.376L25.5504 14.2759L25.7473 12.4958L25.5592 13.376ZM25.25 13.3731L25.2578 12.4732L25.2575 12.4732L25.25 13.3731ZM24.8637 13.3699L24.8712 12.4699L24.871 12.4699L24.8637 13.3699ZM20.7579 13.2687L20.708 14.1673L20.7579 13.2687ZM42.8495 24.6649L41.9812 24.9016L43.7486 24.7065L42.8495 24.6649ZM41.5012 21.1793L42.0757 20.4865L40.7102 21.6086L41.5012 21.1793ZM42.9546 22.391L43.8536 22.4326L43.8743 21.9858L43.5307 21.6995L42.9546 22.391ZM42.3813 21.9126L41.8043 22.6033H41.8043L42.3813 21.9126ZM40.6565 50.7721L39.9449 50.221L41.0654 51.5738L40.6565 50.7721ZM42.4149 47.742H43.3149L41.5854 47.3927L42.4149 47.742ZM42.4149 49.8363L42.8583 50.6195L43.3149 50.361V49.8363H42.4149ZM2.80004 12.0559H3.70004H3.70004H2.80004ZM3.41678 8.3806L4.18664 7.91443L3.25734 6.37972L2.58281 8.04223L3.41678 8.3806ZM2.80004 36.0543H3.70004H3.70004H2.80004ZM2.80004 48.6892H1.90004H2.80004ZM2.80004 52.6773H3.70004H2.80004ZM2.80004 53.7781H1.90004H2.80004ZM2.80004 54.1603H1.9L1.90009 54.1692L2.80004 54.1603ZM5.21707 61.2667L4.52275 61.8393H4.52275L5.21707 61.2667ZM10.8028 65.7315L11.2875 64.9732L11.2875 64.9732L10.8028 65.7315ZM10.8089 65.7354L11.2998 64.981L11.2937 64.9771L10.8089 65.7354ZM14.2962 67.8318L13.9351 68.6561H13.9351L14.2962 67.8318ZM16.0128 68.1155L16.0105 67.2155H16.0105L16.0128 68.1155ZM16.2052 68.1154L16.2048 69.0154H16.2052V68.1154ZM16.2101 68.1154L16.2104 67.2154H16.2101V68.1154ZM16.9392 68.0753L16.7391 67.1978L16.739 67.1978L16.9392 68.0753ZM17.222 67.8717L16.4588 67.3946H16.4588L17.222 67.8717ZM17.5737 66.4755L18.4686 66.5708V66.5708L17.5737 66.4755ZM17.6069 63.0267L17.566 62.1276L16.667 62.1685L16.7079 63.0675L17.6069 63.0267ZM17.6625 63.0241L17.7034 63.9232L18.4396 63.8897L18.552 63.1614L17.6625 63.0241ZM17.6708 62.9761L18.5548 63.1454L18.7573 62.0886L17.6813 62.0761L17.6708 62.9761ZM17.6061 62.9753L16.7061 62.9649L16.6957 63.8648L17.5956 63.8753L17.6061 62.9753ZM17.8359 43.1687L18.7359 43.1792V43.1687H17.8359ZM17.8359 25.0753V24.1753H16.9359V25.0753H17.8359ZM17.836 25.0753V25.9753H18.7265L18.7359 25.0848L17.836 25.0753ZM11.4029 17.0905L11.8485 16.3085H11.8485L11.4029 17.0905ZM5.51701 11.4608L4.79993 12.0047H4.79993L5.51701 11.4608ZM18.7335 3.63549L18.7347 3.63553L18.794 1.8365L18.7928 1.83646L18.7335 3.63549ZM18.7278 3.6353L18.7341 3.63551L18.7921 1.83644L18.7858 1.83624L18.7278 3.6353ZM18.7038 3.63454L18.7283 3.63532L18.7852 1.83622L18.7606 1.83544L18.7038 3.63454ZM18.6091 3.63168L18.7049 3.63458L18.7594 1.8354L18.6637 1.8325L18.6091 3.63168ZM18.242 3.62154C18.4032 3.62573 18.5266 3.62924 18.6098 3.6317L18.663 1.83248C18.5777 1.82996 18.4522 1.8264 18.2889 1.82215L18.242 3.62154ZM16.8449 3.59106C17.4471 3.60203 17.9198 3.61315 18.242 3.62154L18.2889 1.82215C17.9623 1.81365 17.4848 1.80242 16.8777 1.79136L16.8449 3.59106ZM11.8485 3.55035C13.9188 3.54782 15.6406 3.56912 16.8449 3.59106L16.8777 1.79136C15.6636 1.76924 13.9299 1.7478 11.8463 1.75035L11.8485 3.55035ZM3.43095 6.52757C5.43658 3.85598 9.02961 3.5538 11.8485 3.55035L11.8463 1.75035C9.09147 1.75372 4.5895 1.98619 1.99145 5.4469L3.43095 6.52757ZM1.90004 12.0559C1.90004 9.55087 2.49135 7.77915 3.43095 6.52757L1.99145 5.4469C0.761836 7.0848 0.100041 9.26609 0.100042 12.0559H1.90004ZM1.90004 36.0543L1.90004 12.0559H0.100042L0.100042 36.0543H1.90004ZM1.90004 48.6892L1.90004 36.0543H0.100042L0.100042 48.6892H1.90004ZM1.90004 52.6773L1.90004 48.6892H0.100042L0.100042 52.6773H1.90004ZM1.90004 53.7781L1.90004 52.6773H0.100042L0.100042 53.7781H1.90004ZM1.90004 54.0662V53.7781H0.100042V54.0662H1.90004ZM1.90004 54.1399V54.0662H0.100042V54.1399H1.90004ZM1.90004 54.1585V54.1399H0.100042V54.1585H1.90004ZM1.90004 54.1631V54.1585H0.100042V54.1631H1.90004ZM1.90004 54.1643V54.1631H0.100042V54.1643H1.90004ZM1.90004 53.2647C1.44997 53.2647 1.22525 53.2647 1.11306 53.2646C1.05656 53.2646 1.02977 53.2645 1.01725 53.2645C1.00931 53.2645 1.01154 53.2645 1.01651 53.2645C1.01822 53.2646 1.0224 53.2646 1.02787 53.2648C1.03137 53.2649 1.04531 53.2653 1.06322 53.2666C1.07207 53.2672 1.09033 53.2686 1.11333 53.2715C1.12962 53.2736 1.18376 53.2805 1.25073 53.3C1.28567 53.3101 1.34567 53.3297 1.41511 53.3658C1.48508 53.4021 1.58969 53.4682 1.68639 53.5822C1.91986 53.8574 1.90004 54.1713 1.90004 54.1643H0.100042C0.100042 54.1643 0.100061 54.1702 0.100118 54.1761C0.100215 54.182 0.100735 54.1996 0.101274 54.2114C0.102873 54.2419 0.106937 54.2907 0.119318 54.3496C0.147045 54.4814 0.207711 54.6216 0.313699 54.7465C0.493079 54.958 0.71253 55.018 0.749406 55.0287C0.816401 55.0482 0.870589 55.0551 0.886941 55.0572C0.910003 55.0601 0.928342 55.0615 0.937302 55.0622C0.955429 55.0634 0.969703 55.0639 0.973692 55.064C0.97966 55.0642 0.984504 55.0642 0.987088 55.0643C0.995572 55.0644 1.00483 55.0645 1.01096 55.0645C1.02656 55.0645 1.05602 55.0646 1.11202 55.0646C1.22483 55.0647 1.45012 55.0647 1.90004 55.0647V53.2647ZM1 55.0647H1.90004V53.2647H1V55.0647ZM1.90004 54.1647L1.89996 54.1561L0.100042 54.1734L0.100125 54.182L1.90004 54.1647ZM4.52275 61.8393C2.9633 59.9485 1.93261 57.5536 1.90004 54.1647L0.100125 54.182C0.136612 57.9788 1.30995 60.7728 3.13409 62.9846L4.52275 61.8393ZM10.3149 66.4878C8.16869 65.1159 6.0815 63.7294 4.52275 61.8393L3.13409 62.9846C4.89735 65.1226 7.2192 66.6453 9.34541 68.0044L10.3149 66.4878ZM13.9351 68.6562C13.1791 68.325 12.167 67.6927 10.321 66.4917L9.33932 68.0005C11.1408 69.1725 12.2913 69.9012 13.2128 70.3049L13.9351 68.6562ZM16.0151 69.0155C15.1918 69.0176 14.6915 68.9875 13.9351 68.6561L13.2128 70.3049C14.3061 70.7838 15.0991 70.8178 16.0197 70.8155L16.0151 69.0155ZM16.1756 69.0159C16.1224 69.0157 16.0673 69.0153 16.0151 69.0155L16.0197 70.8155C16.0633 70.8154 16.1108 70.8156 16.1657 70.8159L16.1756 69.0159ZM17.1393 68.9527C16.8627 69.0158 16.5281 69.0179 16.1756 69.0159L16.1656 70.8159C16.4824 70.8177 17.0266 70.8247 17.5395 70.7077L17.1393 68.9527ZM17.9851 68.3488C17.7592 68.7101 17.473 68.8766 17.1393 68.9527L17.5395 70.7077C18.2843 70.5378 19.0028 70.1165 19.5113 69.3031L17.9851 68.3488ZM18.4686 66.5708C18.3772 67.4292 18.2114 67.9868 17.9851 68.3488L19.5113 69.3031C19.9513 68.5993 20.1562 67.7218 20.2585 66.7615L18.4686 66.5708ZM18.5392 63.9156C18.5669 65.0266 18.5407 65.8939 18.4686 66.5708L20.2585 66.7615C20.342 65.9781 20.3674 65.0256 20.3387 63.8708L18.5392 63.9156ZM20.7052 62.9781C20.207 62.9901 19.7806 62.9935 19.4396 62.9932L19.4383 64.7932C19.7923 64.7935 20.2337 64.79 20.7485 64.7776L20.7052 62.9781ZM26.2299 62.5716C24.0285 62.8451 22.0897 62.9448 20.7052 62.9781L20.7485 64.7776C22.1772 64.7432 24.1774 64.6404 26.4518 64.3579L26.2299 62.5716ZM40.2596 57.9899C36.0868 60.7834 30.6329 62.0248 26.2299 62.5716L26.4518 64.3579C30.9489 63.7994 36.7378 62.5138 41.2609 59.4857L40.2596 57.9899ZM46.8537 48.4311C45.5514 52.5026 43.4976 55.8221 40.2596 57.9899L41.2609 59.4857C44.942 57.0213 47.1869 53.2976 48.5682 48.9795L46.8537 48.4311ZM48.9394 34.3614C48.7069 39.5364 48.156 44.3597 46.8537 48.4311L48.5682 48.9795C49.9432 44.6806 50.5028 39.6694 50.7376 34.4422L48.9394 34.3614ZM41.7491 10.3531C46.9287 14.9944 49.4714 22.5174 48.9394 34.3614L50.7376 34.4422C51.2809 22.3466 48.7061 14.1701 42.9504 9.01252L41.7491 10.3531ZM18.7359 3.63557C28.7525 3.95205 36.5694 5.71163 41.7491 10.3531L42.9504 9.01252C37.2741 3.92618 28.9011 2.15584 18.7928 1.83646L18.7359 3.63557ZM20.6619 61.1786C20.1689 61.1905 19.7494 61.1936 19.4175 61.1932L19.4153 62.9932C19.7604 62.9936 20.1952 62.9904 20.7052 62.9781L20.6619 61.1786ZM26.0081 60.7854C23.8795 61.0497 22.0022 61.1464 20.6619 61.1786L20.7052 62.9781C22.0897 62.9448 24.0285 62.8451 26.2299 62.5716L26.0081 60.7854ZM37.0279 57.7735C33.5695 59.4756 29.511 60.3503 26.0081 60.7854L26.2299 62.5716C29.8295 62.1246 34.1103 61.2156 37.8228 59.3885L37.0279 57.7735ZM24.6431 61.293L37.5511 59.4722L37.2996 57.6898L24.3917 59.5106L24.6431 61.293ZM20.998 61.3018H24.5174V59.5018H20.998V61.3018ZM20.098 56.9879V60.4018H21.898V56.9879H20.098ZM20.3655 57.8981C20.5232 57.8965 20.7433 57.8935 21.0168 57.8877L20.9792 56.0881C20.7125 56.0937 20.4987 56.0967 20.347 56.0982L20.3655 57.8981ZM20.1601 57.8998C20.2076 57.8995 20.2767 57.8991 20.3655 57.8981L20.347 56.0982C20.2614 56.0991 20.1956 56.0996 20.1511 56.0998L20.1601 57.8998ZM20.1063 57.9L20.159 57.8998L20.1522 56.0998L20.0994 56.1L20.1063 57.9ZM20.0906 57.9L20.1045 57.9L20.1011 56.1L20.0871 56.1L20.0906 57.9ZM20.0859 57.9L20.0897 57.9L20.0879 56.1L20.0841 56.1L20.0859 57.9ZM20.0839 57.9H20.085V56.1H20.0839V57.9ZM20.0836 57.9H20.0839V56.1H20.0836V57.9ZM19.1833 56C19.1833 56.5 19.1834 56.7501 19.1834 56.8753C19.1834 56.9377 19.1835 56.9695 19.1835 56.9859C19.1835 56.9933 19.1835 56.9997 19.1835 57.0046C19.1836 57.006 19.1836 57.0083 19.1836 57.011C19.1836 57.0129 19.1837 57.019 19.1839 57.0267C19.1841 57.0305 19.1843 57.0383 19.1848 57.0481C19.1852 57.0547 19.1865 57.0784 19.1901 57.1085C19.192 57.1236 19.1959 57.1535 19.204 57.1906C19.2103 57.2199 19.2288 57.3008 19.2751 57.3955C19.324 57.4955 19.439 57.6817 19.675 57.8019C19.7878 57.8594 19.8927 57.883 19.97 57.8928C19.9982 57.8959 20.0407 57.899 20.055 57.8995C20.0693 57.8999 20.0836 57.9 20.0836 57.9V56.1C20.0606 56.1 20.2731 56.0865 20.4921 56.1981C20.7281 56.3183 20.8431 56.5045 20.892 56.6045C20.9383 56.6992 20.9568 56.7801 20.9631 56.8094C20.9712 56.8465 20.9752 56.8764 20.977 56.8914C20.9806 56.9215 20.9819 56.9452 20.9823 56.9517C20.9828 56.9614 20.983 56.9691 20.9831 56.9728C20.9834 56.9803 20.9834 56.986 20.9835 56.9874C20.9835 56.9895 20.9835 56.9911 20.9835 56.9915C20.9835 56.9925 20.9835 56.991 20.9835 56.9829C20.9835 56.968 20.9834 56.9373 20.9834 56.8747C20.9834 56.7499 20.9833 56.5 20.9833 56H19.1833ZM19.1833 55L19.1833 56L20.9833 56L20.9833 55L19.1833 55ZM20.0838 54.1H20.0833V55.9H20.0838V54.1ZM20.0851 54.1L20.0825 54.1L20.0851 55.9L20.0877 55.9L20.0851 54.1ZM20.0964 54.1L20.0849 54.1L20.0879 55.9L20.0994 55.9L20.0964 54.1ZM20.1422 54.0998L20.0945 54.1L20.1014 55.9L20.1491 55.8998L20.1422 54.0998ZM20.2054 54.0994L20.1401 54.0998L20.1512 55.8998L20.2165 55.8994L20.2054 54.0994ZM20.3277 54.0983L20.203 54.0994L20.2189 55.8994L20.3436 55.8983L20.3277 54.0983ZM20.9786 54.0877C20.7001 54.0937 20.4792 54.0968 20.3263 54.0983L20.3449 55.8982C20.5039 55.8966 20.7316 55.8934 21.0173 55.8873L20.9786 54.0877ZM20.098 53.8193V54.9875H21.898V53.8193H20.098ZM30.4575 53.2695C28.339 53.4399 26.0074 53.3564 24.1898 53.227C23.2844 53.1626 22.5137 53.0873 21.9703 53.0282C21.6987 52.9987 21.4841 52.9733 21.3383 52.9554C21.2654 52.9464 21.2096 52.9393 21.1725 52.9345C21.154 52.9321 21.1401 52.9303 21.1311 52.9291C21.1265 52.9285 21.1232 52.928 21.1212 52.9277C21.1201 52.9276 21.1194 52.9275 21.119 52.9275C21.1188 52.9274 21.1186 52.9274 21.1186 52.9274C21.1186 52.9274 21.1186 52.9274 21.1186 52.9274C21.1186 52.9274 21.1187 52.9274 20.998 53.8193C20.8773 54.7112 20.8774 54.7112 20.8775 54.7112C20.8776 54.7112 20.8777 54.7112 20.8778 54.7112C20.8781 54.7113 20.8784 54.7113 20.8789 54.7114C20.8797 54.7115 20.8808 54.7116 20.8823 54.7118C20.8852 54.7122 20.8894 54.7128 20.8948 54.7135C20.9055 54.7149 20.9212 54.717 20.9415 54.7196C20.9822 54.7249 21.0417 54.7324 21.1185 54.7419C21.2721 54.7608 21.4951 54.7872 21.7758 54.8177C22.3371 54.8787 23.1304 54.9561 24.062 55.0225C25.9182 55.1546 28.3525 55.2447 30.6019 55.0637L30.4575 53.2695ZM30.6725 53.228C30.5749 53.2455 30.4768 53.2626 30.3783 53.2794L30.681 55.0538C30.7841 55.0362 30.8869 55.0182 30.9894 54.9999L30.6725 53.228ZM37.5122 49.9591C35.5551 51.9003 32.988 52.8139 30.6725 53.228L30.9894 54.9999C33.4995 54.551 36.4653 53.5326 38.7797 51.237L37.5122 49.9591ZM40.4019 44.5848C39.8179 47.0207 38.7496 48.7317 37.5121 49.9591L38.7798 51.237C40.26 49.7688 41.492 47.7586 42.1523 45.0045L40.4019 44.5848ZM40.8752 39.6131C40.5772 42.3031 40.4083 44.0182 40.3778 44.7577L42.1763 44.8316C42.2036 44.1689 42.3635 42.5259 42.6643 39.8113L40.8752 39.6131ZM40.8679 39.6056L40.8699 39.7273L42.6696 39.6971L42.6676 39.5754L40.8679 39.6056ZM40.9509 39.2079L40.9292 39.2637L42.6063 39.9174L42.628 39.8617L40.9509 39.2079ZM40.9673 38.7878C40.9424 39.0096 40.9183 39.2255 40.895 39.4354L42.6839 39.6342C42.7072 39.425 42.7312 39.2098 42.7561 38.9885L40.9673 38.7878ZM41.0578 37.1815C41.0313 37.8571 40.9963 38.4153 40.9645 38.8172L42.7589 38.9591C42.7926 38.532 42.829 37.95 42.8564 37.252L41.0578 37.1815ZM41.0023 31.7525C41.1306 33.8193 41.1139 35.7501 41.0578 37.1815L42.8564 37.252C42.9143 35.7755 42.9318 33.7822 42.7988 31.6409L41.0023 31.7525ZM40.0991 25.6052C40.6014 27.5167 40.8734 29.6776 41.0023 31.7525L42.7988 31.6409C42.6658 29.4993 42.3825 27.2124 41.84 25.1477L40.0991 25.6052ZM38.0199 21.2297C38.8863 22.1593 39.5884 23.6614 40.0991 25.6052L41.84 25.1477C41.2971 23.0814 40.4969 21.2474 39.3366 20.0025L38.0199 21.2297ZM34.0767 17.439C34.9281 17.995 35.9515 19.0105 38.0199 21.2297L39.3366 20.0025C37.315 17.8334 36.1341 16.6327 35.061 15.9319L34.0767 17.439ZM31.6389 16.6588C32.5984 16.9157 33.4507 17.202 34.2296 17.519L34.9081 15.8518C34.0541 15.5042 33.1302 15.1947 32.1044 14.92L31.6389 16.6588ZM29.4174 16.4408C30.4088 16.5317 31.1487 16.5997 31.7509 16.6813L31.9924 14.8975C31.343 14.8096 30.5589 14.7379 29.5818 14.6483L29.4174 16.4408ZM29.1526 16.4165L29.4173 16.4408L29.5818 14.6483L29.3171 14.624L29.1526 16.4165ZM25.2248 16.273C26.6641 16.2855 27.9481 16.3057 29.1525 16.4164L29.3173 14.624C28.0285 14.5055 26.6743 14.4855 25.2404 14.4731L25.2248 16.273ZM24.8359 16.2698L25.2252 16.273L25.2401 14.4731L24.8509 14.4699L24.8359 16.2698ZM20.5971 16.1643C22.0991 16.2477 23.5238 16.2591 24.8361 16.2698L24.8507 14.4699C23.5337 14.4591 22.1501 14.4477 20.6969 14.367L20.5971 16.1643ZM9.29866 13.7658C13.5145 15.4402 17.267 15.9794 20.5971 16.1643L20.6969 14.367C17.4978 14.1894 13.9483 13.6758 9.96309 12.0929L9.29866 13.7658ZM9.27918 11.3767L8.79443 12.5972L10.4673 13.2616L10.9521 12.0411L9.27918 11.3767ZM5.3819 9.72383C6.45321 10.8233 8.15102 11.8967 9.78326 12.5453L10.448 10.8725C9.00314 10.2984 7.53322 9.35246 6.6711 8.46766L5.3819 9.72383ZM7.66824 9.82917C7.34268 9.39992 7.04106 8.98087 6.76695 8.58415L5.28605 9.60734C5.5741 10.0243 5.89129 10.4649 6.23409 10.9169L7.66824 9.82917ZM12.7397 14.7446C10.9805 13.7421 9.15995 11.7959 7.66824 9.82917L6.23409 10.9169C7.76492 12.9353 9.76443 15.1209 11.8485 16.3085L12.7397 14.7446ZM20.5359 25.0984C20.5873 20.0004 16.9383 17.1372 12.7397 14.7446L11.8485 16.3085C16.016 18.6833 18.7763 21.0792 18.736 25.0803L20.5359 25.0984ZM20.5359 43.1739V25.0894H18.7359V43.1739H20.5359ZM20.5359 43.1843V43.1739H18.7359V43.1843H20.5359ZM19.6359 44.0843H19.6359V42.2843H19.6359V44.0843ZM20.3164 62.1036L20.5358 43.1948L18.7359 43.1739L18.5165 62.0828L20.3164 62.1036ZM5.9039 7.27111C5.63745 6.84328 5.42946 6.48473 5.28718 6.22327L3.70612 7.08363C3.86814 7.38139 4.09448 7.77067 4.37598 8.22268L5.9039 7.27111ZM5.1568 7.26517C6.62808 5.67742 9.16032 5.35364 11.8507 5.35035L11.8485 3.55035C9.20063 3.55359 5.89405 3.82129 3.8365 6.04173L5.1568 7.26517ZM11.8507 5.35035C13.9076 5.34783 15.6177 5.369 16.8121 5.39076L16.8449 3.59106C15.6406 3.56912 13.9188 3.54782 11.8485 3.55035L11.8507 5.35035ZM16.8121 5.39076C17.4093 5.40164 17.8774 5.41266 18.1952 5.42093L18.242 3.62154C17.9198 3.61315 17.4471 3.60203 16.8449 3.59106L16.8121 5.39076ZM18.1952 5.42093C18.3541 5.42507 18.4755 5.42851 18.5567 5.43091L18.6098 3.6317C18.5266 3.62924 18.4032 3.62573 18.242 3.62154L18.1952 5.42093ZM18.556 5.43089L18.6487 5.4337L18.7032 3.63453L18.6105 3.63172L18.556 5.43089ZM18.6476 5.43367L18.6707 5.4344L18.7275 3.63529L18.7044 3.63456L18.6476 5.43367ZM18.6701 5.43438L18.6757 5.43456L18.7337 3.63549L18.7281 3.63531L18.6701 5.43438ZM18.6754 5.43455L18.6767 5.43459L18.7354 3.63555L18.7341 3.63551L18.6754 5.43455ZM18.6768 5.43459L18.6771 5.4346L18.7356 3.63555L18.7353 3.63554L18.6768 5.43459ZM18.6761 5.43457L18.6761 5.43457L18.7367 3.63559L18.7366 3.63559L18.6761 5.43457ZM18.6775 5.43462L18.6786 5.43465L18.7364 3.63558L18.7353 3.63555L18.6775 5.43462ZM18.6791 5.43467C28.6041 5.74825 35.8648 7.49714 40.5479 11.6936L41.7491 10.3531C36.5694 5.71163 28.7525 3.95205 18.7359 3.63557L18.6791 5.43467ZM40.5479 11.6936C44.1192 14.8937 46.4245 19.7352 47.0422 27.1451L48.836 26.9956C48.1921 19.2718 45.7572 13.9446 41.7491 10.3531L40.5479 11.6936ZM48.8247 26.9103C48.3864 24.484 47.7195 22.082 47.1653 20.2939C46.8877 19.398 46.6371 18.652 46.4555 18.1291C46.3647 17.8675 46.2911 17.6615 46.24 17.5202C46.2144 17.4496 46.1944 17.3951 46.1807 17.3578C46.1738 17.3392 46.1685 17.3249 46.1648 17.3151C46.163 17.3102 46.1616 17.3064 46.1606 17.3038C46.1601 17.3024 46.1597 17.3014 46.1594 17.3006C46.1593 17.3002 46.1592 17.2999 46.1591 17.2997C46.159 17.2996 46.159 17.2994 46.159 17.2994C46.1589 17.2993 46.1589 17.2992 45.3163 17.6154C44.4736 17.9315 44.4736 17.9315 44.4736 17.9315C44.4736 17.9315 44.4736 17.9315 44.4736 17.9315C44.4736 17.9315 44.4737 17.9316 44.4737 17.9318C44.4739 17.9322 44.4741 17.9329 44.4745 17.9338C44.4752 17.9357 44.4763 17.9387 44.4779 17.9429C44.4809 17.9511 44.4856 17.9638 44.4919 17.9808C44.5044 18.0148 44.5232 18.0659 44.5475 18.1331C44.5962 18.2675 44.6671 18.4659 44.7551 18.7194C44.9312 19.2265 45.1753 19.9531 45.446 20.8267C45.9886 22.5776 46.633 24.9031 47.0534 27.2303L48.8247 26.9103ZM46.0398 17.0801C44.0866 14.4397 42.3957 12.5168 40.4338 10.9396C38.4695 9.36042 36.2725 8.15911 33.3432 6.91335L32.6388 8.56979C35.482 9.77892 37.5165 10.9038 39.306 12.3425C41.098 13.7831 42.6835 15.5696 44.5927 18.1506L46.0398 17.0801ZM33.1207 6.85097L16.1735 4.38252L15.9141 6.16372L32.8613 8.63217L33.1207 6.85097ZM16.0438 5.27312C16.0645 4.37336 16.0644 4.37336 16.0642 4.37335C16.0641 4.37335 16.0639 4.37335 16.0637 4.37334C16.0633 4.37333 16.0628 4.37332 16.0621 4.3733C16.0607 4.37327 16.0588 4.37323 16.0562 4.37318C16.0512 4.37307 16.0439 4.37292 16.0345 4.37273C16.0156 4.37235 15.988 4.37184 15.9522 4.37125C15.8805 4.37008 15.7762 4.36862 15.6433 4.36744C15.3778 4.36508 14.998 4.36384 14.5386 4.36826C13.621 4.37707 12.3792 4.40846 11.0908 4.49941C9.80876 4.58991 8.45081 4.74129 7.31225 4.99747C6.74375 5.12538 6.20195 5.28548 5.7409 5.49109C5.29702 5.68904 4.83273 5.97041 4.5286 6.39316L5.98976 7.44434C6.02077 7.40125 6.14484 7.28182 6.47402 7.13502C6.78603 6.99588 7.20198 6.86728 7.70737 6.75357C8.7166 6.52649 9.97102 6.38293 11.2176 6.29494C12.4577 6.2074 13.6607 6.17677 14.5558 6.16817C15.0027 6.16388 15.3713 6.1651 15.6274 6.16737C15.7554 6.1685 15.8552 6.1699 15.9226 6.17101C15.9563 6.17156 15.9819 6.17204 15.9988 6.17237C16.0073 6.17254 16.0136 6.17267 16.0176 6.17276C16.0196 6.1728 16.0211 6.17284 16.022 6.17286C16.0225 6.17287 16.0228 6.17287 16.023 6.17288C16.023 6.17288 16.0231 6.17288 16.0231 6.17288C16.0231 6.17288 16.023 6.17288 16.0438 5.27312ZM4.5286 6.39316C4.16489 6.89872 4.13494 7.47423 4.27069 7.98013L6.00919 7.51366C6.00097 7.48302 5.99771 7.46096 5.99653 7.44677C5.99595 7.43974 5.99588 7.43473 5.99595 7.43156C5.99598 7.42998 5.99605 7.42882 5.99611 7.42808C5.99617 7.42734 5.99621 7.42698 5.99622 7.42697C5.99622 7.42696 5.99618 7.42725 5.99607 7.42782C5.99596 7.42839 5.99578 7.42918 5.99553 7.43015C5.99501 7.43217 5.99425 7.43455 5.99326 7.43706C5.99104 7.44264 5.98909 7.44529 5.98976 7.44434L4.5286 6.39316ZM46.0866 43.9455C46.9461 44.2124 46.9461 44.2124 46.9461 44.2123C46.9462 44.2122 46.9462 44.2121 46.9462 44.212C46.9463 44.2118 46.9464 44.2116 46.9465 44.2113C46.9466 44.2107 46.9469 44.2098 46.9472 44.2087C46.9479 44.2066 46.9489 44.2035 46.9501 44.1995C46.9525 44.1915 46.9561 44.18 46.9607 44.1649C46.97 44.1347 46.9834 44.0904 47.0007 44.033C47.0352 43.9181 47.085 43.7505 47.1467 43.5374C47.2701 43.1111 47.4412 42.502 47.6336 41.7669C48.0177 40.299 48.489 38.3183 48.8315 36.284L47.0565 35.9851C46.726 37.9482 46.2686 39.873 45.8922 41.3112C45.7044 42.0292 45.5374 42.6232 45.4176 43.037C45.3578 43.2438 45.3098 43.4054 45.2769 43.5147C45.2605 43.5693 45.2478 43.6109 45.2394 43.6385C45.2352 43.6523 45.232 43.6626 45.2299 43.6693C45.2289 43.6727 45.2281 43.6752 45.2277 43.6767C45.2274 43.6775 45.2273 43.678 45.2272 43.6783C45.2271 43.6785 45.2271 43.6786 45.2271 43.6786C45.2271 43.6786 45.2271 43.6786 45.2271 43.6786C45.2271 43.6786 45.2271 43.6786 46.0866 43.9455ZM43.2419 52.8549L46.9136 44.3005L45.2596 43.5905L41.5878 52.1449L43.2419 52.8549ZM38.9831 58.6826L43.1398 53.0333L41.6899 51.9665L37.5333 57.6158L38.9831 58.6826ZM39.2582 56.4942C38.7995 56.8012 38.3213 57.0892 37.8268 57.3593L38.6896 58.939C39.228 58.645 39.7528 58.3292 40.2596 57.9899L39.2582 56.4942ZM45.1393 47.8827C43.916 51.7071 42.0536 54.6227 39.2582 56.4942L40.2596 57.9899C43.4976 55.8221 45.5514 52.5026 46.8537 48.4311L45.1393 47.8827ZM47.0457 36.079C46.7729 40.4937 46.2223 44.4969 45.1393 47.8827L46.8537 48.4311C48.0023 44.8402 48.5656 40.6679 48.8423 36.19L47.0457 36.079ZM13.88 12.9806C13.9505 12.9533 14.0203 12.9229 14.0891 12.889L13.2931 11.2745C13.2742 11.2839 13.2533 11.2931 13.2303 11.302L13.88 12.9806ZM13.6911 12.9818H19.5032V11.1818H13.6911V12.9818ZM19.3151 12.9619L25.3711 14.2561L25.7473 12.4958L19.6913 11.2016L19.3151 12.9619ZM25.568 12.476C25.4647 12.475 25.3613 12.4741 25.2578 12.4732L25.2422 14.2731C25.3452 14.274 25.4479 14.2749 25.5504 14.2759L25.568 12.476ZM25.2575 12.4732L24.8712 12.4699L24.8562 14.2699L25.2425 14.2731L25.2575 12.4732ZM24.871 12.4699C23.5481 12.4591 22.2111 12.448 20.8078 12.3701L20.708 14.1673C22.1602 14.248 23.5385 14.2591 24.8563 14.2699L24.871 12.4699ZM20.8078 12.3701C18.6212 12.2487 16.3009 11.9656 13.7946 11.2738L13.3157 13.0089C15.9795 13.7442 18.4336 14.0411 20.708 14.1673L20.8078 12.3701ZM43.7178 24.4282C43.3691 23.1487 42.9088 21.8857 42.2922 20.7499L40.7102 21.6086C41.2423 22.5887 41.6573 23.7132 41.9812 24.9016L43.7178 24.4282ZM42.0555 22.3495L41.9505 24.6234L43.7486 24.7065L43.8536 22.4326L42.0555 22.3495ZM41.8043 22.6033C41.9919 22.76 42.1833 22.9198 42.3785 23.0825L43.5307 21.6995C43.3364 21.5377 43.1459 21.3786 42.9582 21.2218L41.8043 22.6033ZM40.9268 21.8721C41.2117 22.1084 41.5031 22.3517 41.8043 22.6033L42.9582 21.2218C42.6575 20.9706 42.3636 20.7252 42.0757 20.4865L40.9268 21.8721ZM41.3681 51.3231C42.0965 50.3825 42.7312 49.3099 43.2443 48.0913L41.5854 47.3927C41.1323 48.4686 40.5765 49.4054 39.9449 50.221L41.3681 51.3231ZM42.4149 49.8363C41.9714 49.0532 41.9714 49.0532 41.9714 49.0532C41.9714 49.0532 41.9714 49.0531 41.9714 49.0531C41.9715 49.0531 41.9715 49.0531 41.9714 49.0531C41.9714 49.0532 41.9714 49.0532 41.9713 49.0532C41.9711 49.0534 41.9707 49.0536 41.9702 49.0539C41.9691 49.0545 41.9674 49.0554 41.965 49.0568C41.9602 49.0595 41.9528 49.0636 41.9429 49.0692C41.923 49.0803 41.893 49.0971 41.8535 49.119C41.7744 49.1629 41.6573 49.2274 41.507 49.3089C41.2062 49.4718 40.7733 49.7022 40.2476 49.9703L41.0654 51.5738C41.6064 51.2979 42.0526 51.0604 42.3644 50.8915C42.5204 50.807 42.6428 50.7396 42.7267 50.693C42.7687 50.6697 42.8011 50.6517 42.8232 50.6392C42.8343 50.633 42.8428 50.6282 42.8487 50.6249C42.8516 50.6233 42.8539 50.622 42.8555 50.6211C42.8563 50.6206 42.857 50.6203 42.8574 50.62C42.8577 50.6199 42.8579 50.6198 42.858 50.6197C42.8581 50.6196 42.8582 50.6196 42.8582 50.6196C42.8582 50.6195 42.8583 50.6195 42.8583 50.6195C42.8583 50.6195 42.8583 50.6195 42.4149 49.8363ZM41.5149 47.742V49.8363H43.3149V47.742H41.5149ZM3.70004 12.0559C3.70004 10.612 3.92081 9.53216 4.25075 8.71897L2.58281 8.04223C2.14836 9.11299 1.90004 10.4309 1.90004 12.0559H3.70004ZM3.70004 36.0543L3.70004 12.0559H1.90004L1.90004 36.0543H3.70004ZM3.70004 48.6892L3.70004 36.0543H1.90004L1.90004 48.6892H3.70004ZM3.70004 52.6773L3.70004 48.6892H1.90004L1.90004 52.6773H3.70004ZM3.70004 53.7781L3.70004 52.6773H1.90004L1.90004 53.7781H3.70004ZM3.70004 54.0662V53.7781H1.90004V54.0662H3.70004ZM3.70004 54.1399V54.0662H1.90004V54.1399H3.70004ZM3.70004 54.1585V54.1399H1.90004V54.1585H3.70004ZM3.70004 54.1603V54.1585H1.90004V54.1603H3.70004ZM5.9114 60.6941C4.61719 59.1248 3.72941 57.1301 3.7 54.1514L1.90009 54.1692C1.93352 57.5557 2.96401 59.9493 4.52275 61.8393L5.9114 60.6941ZM11.2875 64.9732C9.11854 63.5868 7.26596 62.3365 5.9114 60.6941L4.52275 61.8393C6.08231 63.7303 8.17083 65.1173 10.3181 66.4898L11.2875 64.9732ZM11.2937 64.9771L11.2875 64.9732L10.318 66.4898L10.3242 66.4937L11.2937 64.9771ZM14.6574 67.0074C14.0671 66.7488 13.1941 66.2136 11.2997 64.981L10.3181 66.4898C12.1658 67.692 13.1787 68.3248 13.9351 68.6561L14.6574 67.0074ZM16.0105 67.2155C15.2832 67.2174 15.0763 67.1909 14.6574 67.0074L13.9351 68.6561C14.6916 68.9875 15.1919 69.0176 16.0151 69.0155L16.0105 67.2155ZM16.2055 67.2154C16.146 67.2153 16.0809 67.2153 16.0105 67.2155L16.0151 69.0155C16.0824 69.0153 16.1451 69.0153 16.2048 69.0154L16.2055 67.2154ZM16.2101 67.2154H16.2052V69.0154H16.2101V67.2154ZM16.739 67.1978C16.6843 67.2103 16.6033 67.2155 16.2104 67.2154L16.2097 69.0154C16.5204 69.0155 16.8404 69.0209 17.1393 68.9527L16.739 67.1978ZM16.4588 67.3946C16.4544 67.4017 16.4942 67.3351 16.588 67.2709C16.6804 67.2077 16.7586 67.1933 16.7391 67.1978L17.1393 68.9527C17.2465 68.9283 17.4235 68.8802 17.6043 68.7566C17.7866 68.6319 17.9043 68.478 17.9851 68.3488L16.4588 67.3946ZM16.6788 66.3801C16.6395 66.7483 16.589 66.999 16.5431 67.1642C16.5203 67.2462 16.4997 67.3037 16.4839 67.3417C16.468 67.3799 16.4584 67.3952 16.4588 67.3946L17.9851 68.3488C18.2115 67.9868 18.3772 67.429 18.4686 66.5708L16.6788 66.3801ZM16.7079 63.0675C16.7773 64.5942 16.7564 65.6515 16.6788 66.3801L18.4686 66.5708C18.5601 65.7121 18.5772 64.5523 18.506 62.9858L16.7079 63.0675ZM17.6216 62.1251L17.566 62.1276L17.6478 63.9257L17.7034 63.9232L17.6216 62.1251ZM16.7869 62.8067C16.7819 62.833 16.7772 62.8597 16.7731 62.8869L18.552 63.1614C18.5527 63.1566 18.5537 63.1512 18.5548 63.1454L16.7869 62.8067ZM17.5956 63.8753L17.6604 63.876L17.6813 62.0761L17.6165 62.0754L17.5956 63.8753ZM16.936 43.1583L16.7061 62.9649L18.506 62.9858L18.7359 43.1792L16.936 43.1583ZM16.9359 25.0848V43.1687H18.7359V25.0848H16.9359ZM16.9359 25.0753V25.0848H18.7359V25.0753H16.9359ZM17.836 24.1753H17.8359V25.9753H17.836V24.1753ZM10.9573 17.8724C15.0912 20.2281 16.9669 22.1571 16.936 25.0657L18.7359 25.0848C18.7784 21.081 16.0177 18.6843 11.8485 16.3085L10.9573 17.8724ZM4.79993 12.0047C6.37028 14.0751 8.54864 16.4998 10.9573 17.8724L11.8485 16.3085C9.76444 15.1209 7.76493 12.9353 6.23409 10.9169L4.79993 12.0047ZM2.64691 8.84676C3.182 9.73044 3.92416 10.85 4.79993 12.0047L6.23409 10.9169C5.39856 9.81529 4.69136 8.74797 4.18664 7.91443L2.64691 8.84676Z" fill="black"/>
</svg>
