<svg width="245" height="123" viewBox="0 0 245 123" fill="none" xmlns="http://www.w3.org/2000/svg">
<path d="M2.59681e-05 122.5C2.73744e-05 106.413 3.16858 90.4837 9.32478 75.6213C15.481 60.7589 24.5043 47.2546 35.8795 35.8794C47.2546 24.5042 60.7589 15.481 75.6213 9.32475C90.4837 3.16855 106.413 3.14314e-06 122.5 4.5495e-06C138.587 5.95586e-06 154.516 3.16857 169.379 9.32476C184.241 15.481 197.745 24.5043 209.121 35.8794C220.496 47.2546 229.519 60.7589 235.675 75.6213C241.831 90.4837 245 106.413 245 122.5L122.5 122.5L2.59681e-05 122.5Z" fill="#2F80ED"/>
</svg>
